<?xml version="1.0" encoding="UTF-8"?><!DOCTYPE svg PUBLIC "-//W3C//DTD SVG 1.1//EN" "http://www.w3.org/Graphics/SVG/1.1/DTD/svg11.dtd"><svg xmlns="http://www.w3.org/2000/svg"><symbol id="ico-back-arrow" viewBox="0 0 7 12">
    <title>
        back-arrow
    </title>
    <path d="M6.842 2.73L3.286 6.286l3.556 3.556a.412.412 0 0 1 .127.3.412.412 0 0 1-.127.302L5.73 11.556a.412.412 0 0 1-.301.127.412.412 0 0 1-.302-.127L.158 6.587a.412.412 0 0 1-.127-.301c0-.116.043-.217.127-.302l4.97-4.968a.412.412 0 0 1 .3-.128c.117 0 .217.043.302.128l1.112 1.111a.412.412 0 0 1 .127.302.412.412 0 0 1-.127.3z" fill-rule="evenodd"/>
</symbol><symbol id="ico-logo" viewBox="0 0 317 73">
    <title>
        logo
    </title>
    <path d="M12.531 33.46c-3.895 0-7.544-.736-10.948-2.208a2.088 2.088 0 0 1-.92-.759 1.939 1.939 0 0 1-.368-1.127c0-.521.176-.974.529-1.357.353-.383.805-.575 1.357-.575.307 0 .598.061.874.184 2.821 1.257 5.842 1.886 9.062 1.886 5.367 0 8.05-1.763 8.05-5.29 0-.92-.345-1.687-1.035-2.3-.69-.613-1.541-1.096-2.553-1.449s-2.453-.774-4.324-1.265c-2.484-.644-4.493-1.265-6.026-1.863a10.506 10.506 0 0 1-3.956-2.691C1.169 13.45.617 11.856.617 9.862c0-1.748.46-3.335 1.38-4.761.92-1.426 2.277-2.56 4.071-3.404C7.862.854 10.016.432 12.531.432c3.373 0 6.425.506 9.154 1.518.859.307 1.288.92 1.288 1.84 0 .49-.169.935-.506 1.334-.337.399-.782.598-1.334.598-.184 0-.43-.061-.736-.184a22.483 22.483 0 0 0-7.406-1.242c-2.423 0-4.393.46-5.911 1.38-1.518.92-2.277 2.208-2.277 3.864 0 1.104.36 2.001 1.081 2.691.72.69 1.625 1.227 2.714 1.61s2.568.79 4.439 1.219c2.423.583 4.378 1.165 5.865 1.748a9.6 9.6 0 0 1 3.818 2.714c1.058 1.227 1.587 2.883 1.587 4.968 0 1.717-.49 3.258-1.472 4.623-.981 1.365-2.361 2.43-4.14 3.197-1.779.767-3.833 1.15-6.164 1.15zM32.817 33a2 2 0 0 1-1.472-.598 2 2 0 0 1-.598-1.472V3.008c0-.583.2-1.081.598-1.495.399-.414.89-.621 1.472-.621h18.446c.552 0 1.02.192 1.403.575.383.383.575.851.575 1.403s-.192 1.012-.575 1.38a1.95 1.95 0 0 1-1.403.552h-16.33v10.166h14.674c.552 0 1.02.192 1.403.575.383.383.575.851.575 1.403s-.192 1.012-.575 1.38a1.95 1.95 0 0 1-1.403.552H34.933V29.09h16.33c.552 0 1.02.192 1.403.575.383.383.575.851.575 1.403s-.192 1.012-.575 1.38a1.95 1.95 0 0 1-1.403.552H32.817zm30.176 0a2.79 2.79 0 0 1-2.047-.851 2.79 2.79 0 0 1-.851-2.047V2.778c0-.583.2-1.081.598-1.495.399-.414.89-.621 1.472-.621.583 0 1.081.207 1.495.621.414.414.621.912.621 1.495v26.036h15.042c.583 0 1.081.207 1.495.621.414.414.621.912.621 1.495 0 .583-.207 1.073-.621 1.472a2.078 2.078 0 0 1-1.495.598h-16.33zm26.496 0a2.79 2.79 0 0 1-2.047-.851 2.79 2.79 0 0 1-.851-2.047V2.778c0-.583.2-1.081.598-1.495.399-.414.89-.621 1.472-.621.583 0 1.081.207 1.495.621.414.414.621.912.621 1.495v26.036h15.042c.583 0 1.081.207 1.495.621.414.414.621.912.621 1.495 0 .583-.207 1.073-.621 1.472a2.078 2.078 0 0 1-1.495.598h-16.33zm25.668 0a2 2 0 0 1-1.472-.598 2 2 0 0 1-.598-1.472V3.008c0-.583.2-1.081.598-1.495.399-.414.89-.621 1.472-.621h18.446c.552 0 1.02.192 1.403.575.383.383.575.851.575 1.403s-.192 1.012-.575 1.38a1.95 1.95 0 0 1-1.403.552h-16.33v10.166h14.674c.552 0 1.02.192 1.403.575.383.383.575.851.575 1.403s-.192 1.012-.575 1.38a1.95 1.95 0 0 1-1.403.552h-14.674V29.09h16.33c.552 0 1.02.192 1.403.575.383.383.575.851.575 1.403s-.192 1.012-.575 1.38a1.95 1.95 0 0 1-1.403.552h-18.446zm29.348.23a2 2 0 0 1-1.472-.598 2 2 0 0 1-.598-1.472V3.008c0-.583.2-1.081.598-1.495.399-.414.89-.621 1.472-.621h10.718c4.17 0 7.299.859 9.384 2.576s3.128 3.971 3.128 6.762c0 1.84-.514 3.519-1.541 5.037-1.027 1.518-2.522 2.614-4.485 3.289 2.208.583 3.718 1.955 4.531 4.117.813 2.162 1.219 4.286 1.219 6.371v2.116a2 2 0 0 1-.598 1.472 2 2 0 0 1-1.472.598c-.644 0-1.158-.192-1.541-.575-.383-.383-.575-.882-.575-1.495v-1.38c0-1.533-.138-2.952-.414-4.255-.276-1.303-.935-2.469-1.978-3.496-1.043-1.027-2.622-1.541-4.738-1.541h-9.522V31.16c0 .583-.207 1.073-.621 1.472a2.078 2.078 0 0 1-1.495.598zm10.442-16.698c2.637 0 4.73-.521 6.279-1.564 1.549-1.043 2.323-2.515 2.323-4.416 0-1.84-.667-3.25-2.001-4.232-1.334-.981-3.611-1.472-6.831-1.472h-8.096v11.684h8.326zm22.31 16.698a2 2 0 0 1-1.472-.598 2 2 0 0 1-.598-1.472V3.008c0-.583.2-1.081.598-1.495.399-.414.89-.621 1.472-.621h10.488c2.913 0 5.29.49 7.13 1.472 1.84.981 3.159 2.239 3.956 3.772.797 1.533 1.196 3.19 1.196 4.968 0 1.779-.399 3.435-1.196 4.968-.797 1.533-2.116 2.79-3.956 3.772-1.84.981-4.217 1.472-7.13 1.472h-8.372v9.844c0 .583-.207 1.073-.621 1.472a2.078 2.078 0 0 1-1.495.598zm10.074-15.87c3.128 0 5.328-.598 6.601-1.794 1.273-1.196 1.909-2.683 1.909-4.462s-.636-3.266-1.909-4.462c-1.273-1.196-3.473-1.794-6.601-1.794h-7.958V17.36h7.958zm32.982 16.1c-3.22 0-6.041-.705-8.464-2.116-2.423-1.41-4.293-3.358-5.612-5.842-1.319-2.484-2.009-5.336-2.07-8.556.061-3.22.751-6.072 2.07-8.556 1.319-2.484 3.19-4.431 5.612-5.842 2.423-1.41 5.244-2.116 8.464-2.116 3.22 0 6.034.705 8.441 2.116 2.407 1.41 4.278 3.366 5.612 5.865 1.334 2.5 2.032 5.344 2.093 8.533-.061 3.19-.759 6.034-2.093 8.533-1.334 2.5-3.205 4.454-5.612 5.865-2.407 1.41-5.221 2.116-8.441 2.116zm0-3.91c2.453 0 4.585-.552 6.394-1.656a10.877 10.877 0 0 0 4.14-4.508c.95-1.901 1.426-4.048 1.426-6.44 0-2.392-.475-4.539-1.426-6.44a10.877 10.877 0 0 0-4.14-4.508c-1.81-1.104-3.94-1.656-6.394-1.656-2.484 0-4.623.552-6.417 1.656a10.924 10.924 0 0 0-4.117 4.508c-.95 1.901-1.426 4.048-1.426 6.44 0 2.392.475 4.539 1.426 6.44a10.924 10.924 0 0 0 4.117 4.508c1.794 1.104 3.933 1.656 6.417 1.656zm25.208 3.68a2 2 0 0 1-1.472-.598 2 2 0 0 1-.598-1.472V2.778c0-.583.2-1.081.598-1.495.399-.414.89-.621 1.472-.621.583 0 1.081.207 1.495.621.414.414.621.912.621 1.495V31.16c0 .583-.207 1.073-.621 1.472a2.078 2.078 0 0 1-1.495.598zm13.11 0a2 2 0 0 1-1.472-.598 2 2 0 0 1-.598-1.472V3.698c0-.828.291-1.541.874-2.139a2.845 2.845 0 0 1 2.116-.897h.598c.981 0 1.825.46 2.53 1.38l17.71 25.576V2.778c0-.583.2-1.081.598-1.495.399-.414.89-.621 1.472-.621.583 0 1.081.207 1.495.621.414.414.621.912.621 1.495V30.24c0 .828-.299 1.533-.897 2.116a2.959 2.959 0 0 1-2.139.874h-.552c-.49 0-.95-.115-1.38-.345a3.175 3.175 0 0 1-1.058-.897L260.747 6.274V31.16c0 .583-.207 1.073-.621 1.472a2.078 2.078 0 0 1-1.495.598zm44.39 0a2 2 0 0 1-1.472-.598 2 2 0 0 1-.598-1.472V4.802h-9.384c-.552 0-1.012-.184-1.38-.552-.368-.368-.552-.828-.552-1.38 0-.552.184-1.02.552-1.403.368-.383.828-.575 1.38-.575h22.908c.552 0 1.02.192 1.403.575.383.383.575.851.575 1.403s-.192 1.012-.575 1.38a1.95 1.95 0 0 1-1.403.552h-9.338V31.16c0 .583-.207 1.073-.621 1.472a2.078 2.078 0 0 1-1.495.598zM9.623 64.38a7.063 7.063 0 0 1-3.097-.684 5.394 5.394 0 0 1-2.261-1.995c-.557-.874-.836-1.881-.836-3.021 0-1.875.741-3.37 2.223-4.484 1.482-1.115 3.654-1.672 6.517-1.672h4.598v-.304c0-1.672-.412-2.875-1.235-3.61-.823-.735-2.109-1.102-3.857-1.102-.963 0-1.818.076-2.565.228-.747.152-1.577.38-2.489.684-.203.05-.367.076-.494.076-.38 0-.71-.14-.988-.418a1.395 1.395 0 0 1-.418-1.026c0-.684.33-1.165.988-1.444 2.153-.912 4.345-1.368 6.574-1.368 1.748 0 3.224.355 4.427 1.064 1.203.71 2.09 1.628 2.66 2.755a8.01 8.01 0 0 1 .855 3.667V62.48c0 .481-.171.887-.513 1.216-.342.33-.754.494-1.235.494-.481 0-.887-.165-1.216-.494a1.653 1.653 0 0 1-.494-1.216v-.988c-1.875 1.925-4.256 2.888-7.144 2.888zm1.292-3.04c1.115 0 2.191-.272 3.23-.817 1.039-.545 1.913-1.222 2.622-2.033v-3.192h-4.142c-3.825 0-5.738 1-5.738 3.002 0 .912.31 1.647.931 2.204.62.557 1.653.836 3.097.836zm16.834 2.85c-.481 0-.887-.165-1.216-.494a1.653 1.653 0 0 1-.494-1.216V46.178c0-.481.165-.893.494-1.235.33-.342.735-.513 1.216-.513s.893.171 1.235.513c.342.342.513.754.513 1.235v1.558a9.466 9.466 0 0 1 2.565-2.508c1-.659 2.299-.988 3.895-.988 1.419 0 2.635.38 3.648 1.14 1.013.76 1.735 1.685 2.166 2.774 1.57-2.61 3.901-3.914 6.992-3.914 1.419 0 2.603.355 3.553 1.064a6.348 6.348 0 0 1 2.109 2.736 9.146 9.146 0 0 1 .684 3.496V62.48c0 .481-.171.887-.513 1.216-.342.33-.754.494-1.235.494-.481 0-.887-.165-1.216-.494a1.653 1.653 0 0 1-.494-1.216V52.22c0-1.647-.291-2.856-.874-3.629-.583-.773-1.583-1.159-3.002-1.159-1.292 0-2.362.336-3.211 1.007-.849.671-1.602 1.552-2.261 2.641v11.4c0 .481-.171.887-.513 1.216-.342.33-.754.494-1.235.494-.481 0-.887-.165-1.216-.494a1.653 1.653 0 0 1-.494-1.216V52.22c0-1.647-.291-2.856-.874-3.629-.583-.773-1.583-1.159-3.002-1.159-1.292 0-2.362.336-3.211 1.007-.849.671-1.602 1.552-2.261 2.641v11.4c0 .481-.171.887-.513 1.216-.342.33-.754.494-1.235.494zm38.114.19a7.063 7.063 0 0 1-3.097-.684 5.394 5.394 0 0 1-2.261-1.995c-.557-.874-.836-1.881-.836-3.021 0-1.875.741-3.37 2.223-4.484 1.482-1.115 3.654-1.672 6.517-1.672h4.598v-.304c0-1.672-.412-2.875-1.235-3.61-.823-.735-2.109-1.102-3.857-1.102-.963 0-1.818.076-2.565.228-.747.152-1.577.38-2.489.684-.203.05-.367.076-.494.076-.38 0-.71-.14-.988-.418a1.395 1.395 0 0 1-.418-1.026c0-.684.33-1.165.988-1.444 2.153-.912 4.345-1.368 6.574-1.368 1.748 0 3.224.355 4.427 1.064 1.203.71 2.09 1.628 2.66 2.755a8.01 8.01 0 0 1 .855 3.667V62.48c0 .481-.171.887-.513 1.216-.342.33-.754.494-1.235.494-.481 0-.887-.165-1.216-.494a1.653 1.653 0 0 1-.494-1.216v-.988c-1.875 1.925-4.256 2.888-7.144 2.888zm1.292-3.04c1.115 0 2.191-.272 3.23-.817 1.039-.545 1.913-1.222 2.622-2.033v-3.192h-4.142c-3.825 0-5.738 1-5.738 3.002 0 .912.31 1.647.931 2.204.62.557 1.653.836 3.097.836zM83.191 64c-.684 0-1.254-.177-1.71-.532-.456-.355-.684-.849-.684-1.482 0-.583.203-1.102.608-1.558L92.349 47.85h-9.614c-.456 0-.836-.152-1.14-.456-.304-.304-.456-.684-.456-1.14 0-.456.152-.842.456-1.159a1.515 1.515 0 0 1 1.14-.475h11.514c.659 0 1.19.203 1.596.608.405.405.608.925.608 1.558 0 .583-.177 1.09-.532 1.52L85.281 60.77h9.766c.456 0 .842.158 1.159.475.317.317.475.703.475 1.159 0 .456-.158.836-.475 1.14a1.611 1.611 0 0 1-1.159.456H83.191zm26.562.38c-1.95 0-3.66-.418-5.13-1.254-1.47-.836-2.603-2.02-3.401-3.553-.798-1.533-1.197-3.287-1.197-5.263s.399-3.73 1.197-5.263 1.932-2.717 3.401-3.553c1.47-.836 3.18-1.254 5.13-1.254 1.925 0 3.623.418 5.092 1.254 1.47.836 2.61 2.02 3.42 3.553s1.216 3.287 1.216 5.263-.405 3.73-1.216 5.263c-.81 1.533-1.95 2.717-3.42 3.553-1.47.836-3.167 1.254-5.092 1.254zm0-3.154c1.039 0 2.033-.24 2.983-.722.95-.481 1.735-1.241 2.356-2.28.62-1.039.931-2.356.931-3.952 0-1.57-.31-2.875-.931-3.914-.62-1.039-1.406-1.792-2.356-2.261a6.66 6.66 0 0 0-2.983-.703 6.74 6.74 0 0 0-3.021.703c-.95.469-1.729 1.222-2.337 2.261-.608 1.039-.912 2.343-.912 3.914 0 1.596.304 2.913.912 3.952.608 1.039 1.387 1.799 2.337 2.28.95.481 1.957.722 3.021.722zm16.264 2.964c-.481 0-.887-.165-1.216-.494a1.653 1.653 0 0 1-.494-1.216V46.178c0-.481.165-.893.494-1.235.33-.342.735-.513 1.216-.513s.893.171 1.235.513c.342.342.513.754.513 1.235v1.558c.963-1.064 2.001-1.913 3.116-2.546 1.115-.633 2.432-.95 3.952-.95 1.393 0 2.603.33 3.629.988 1.026.659 1.811 1.558 2.356 2.698.545 1.14.817 2.394.817 3.762V62.48c0 .481-.171.887-.513 1.216-.342.33-.754.494-1.235.494-.481 0-.887-.165-1.216-.494a1.653 1.653 0 0 1-.494-1.216V52.068c0-3.09-1.393-4.636-4.18-4.636-1.267 0-2.4.33-3.401.988-1 .659-1.944 1.545-2.831 2.66v11.4c0 .481-.171.887-.513 1.216-.342.33-.754.494-1.235.494zm36.252.19a7.063 7.063 0 0 1-3.097-.684 5.394 5.394 0 0 1-2.261-1.995c-.557-.874-.836-1.881-.836-3.021 0-1.875.741-3.37 2.223-4.484 1.482-1.115 3.654-1.672 6.517-1.672h4.598v-.304c0-1.672-.412-2.875-1.235-3.61-.823-.735-2.109-1.102-3.857-1.102-.963 0-1.818.076-2.565.228-.747.152-1.577.38-2.489.684-.203.05-.367.076-.494.076-.38 0-.71-.14-.988-.418a1.395 1.395 0 0 1-.418-1.026c0-.684.33-1.165.988-1.444 2.153-.912 4.345-1.368 6.574-1.368 1.748 0 3.224.355 4.427 1.064 1.203.71 2.09 1.628 2.66 2.755a8.01 8.01 0 0 1 .855 3.667V62.48c0 .481-.171.887-.513 1.216-.342.33-.754.494-1.235.494-.481 0-.887-.165-1.216-.494a1.653 1.653 0 0 1-.494-1.216v-.988c-1.875 1.925-4.256 2.888-7.144 2.888zm1.292-3.04c1.115 0 2.191-.272 3.23-.817 1.039-.545 1.913-1.222 2.622-2.033v-3.192h-4.142c-3.825 0-5.738 1-5.738 3.002 0 .912.31 1.647.931 2.204.62.557 1.653.836 3.097.836zm16.834 2.85c-.481 0-.887-.165-1.216-.494a1.653 1.653 0 0 1-.494-1.216V46.178c0-.481.165-.893.494-1.235.33-.342.735-.513 1.216-.513s.893.171 1.235.513c.342.342.513.754.513 1.235v1.558c.963-1.064 2.001-1.913 3.116-2.546 1.115-.633 2.432-.95 3.952-.95 1.393 0 2.603.33 3.629.988 1.026.659 1.811 1.558 2.356 2.698.545 1.14.817 2.394.817 3.762V62.48c0 .481-.171.887-.513 1.216-.342.33-.754.494-1.235.494-.481 0-.887-.165-1.216-.494a1.653 1.653 0 0 1-.494-1.216V52.068c0-3.09-1.393-4.636-4.18-4.636-1.267 0-2.4.33-3.401.988-1 .659-1.944 1.545-2.831 2.66v11.4c0 .481-.171.887-.513 1.216-.342.33-.754.494-1.235.494zm26.372.19a7.063 7.063 0 0 1-3.097-.684 5.394 5.394 0 0 1-2.261-1.995c-.557-.874-.836-1.881-.836-3.021 0-1.875.741-3.37 2.223-4.484 1.482-1.115 3.654-1.672 6.517-1.672h4.598v-.304c0-1.672-.412-2.875-1.235-3.61-.823-.735-2.109-1.102-3.857-1.102-.963 0-1.818.076-2.565.228-.747.152-1.577.38-2.489.684-.203.05-.367.076-.494.076-.38 0-.71-.14-.988-.418a1.395 1.395 0 0 1-.418-1.026c0-.684.33-1.165.988-1.444 2.153-.912 4.345-1.368 6.574-1.368 1.748 0 3.224.355 4.427 1.064 1.203.71 2.09 1.628 2.66 2.755a8.01 8.01 0 0 1 .855 3.667V62.48c0 .481-.171.887-.513 1.216-.342.33-.754.494-1.235.494-.481 0-.887-.165-1.216-.494a1.653 1.653 0 0 1-.494-1.216v-.988c-1.875 1.925-4.256 2.888-7.144 2.888zm1.292-3.04c1.115 0 2.191-.272 3.23-.817 1.039-.545 1.913-1.222 2.622-2.033v-3.192h-4.142c-3.825 0-5.738 1-5.738 3.002 0 .912.31 1.647.931 2.204.62.557 1.653.836 3.097.836zm16.834 2.85c-.481 0-.887-.165-1.216-.494a1.653 1.653 0 0 1-.494-1.216V37.818c0-.481.165-.893.494-1.235.33-.342.735-.513 1.216-.513.507 0 .925.165 1.254.494.33.33.494.747.494 1.254V62.48c0 .481-.171.887-.513 1.216-.342.33-.754.494-1.235.494zm12.084 8.74c-.456 0-.842-.165-1.159-.494a1.64 1.64 0 0 1-.475-1.178c0-.203.038-.405.114-.608l2.47-6.346-7.144-17.404a1.945 1.945 0 0 1-.152-.722c0-.481.165-.893.494-1.235.33-.342.735-.513 1.216-.513.355 0 .678.101.969.304.291.203.5.456.627.76l5.852 14.516 5.966-14.44c.33-.76.861-1.14 1.596-1.14.481 0 .887.171 1.216.513.33.342.494.754.494 1.235 0 .228-.038.443-.114.646l-10.374 24.928c-.355.785-.887 1.178-1.596 1.178zm23.56-8.55c-3.699 0-5.548-1.672-5.548-5.016v-11.78h-2.698a.697.697 0 0 1-.513-.209.697.697 0 0 1-.209-.513c0-.253.114-.469.342-.646l5.168-5.054c.228-.228.443-.342.646-.342s.374.076.513.228c.14.152.209.33.209.532v3.04h4.294c.43 0 .785.14 1.064.418.279.279.418.633.418 1.064 0 .405-.14.754-.418 1.045-.279.291-.633.437-1.064.437h-4.294V59.06c0 .988.234 1.615.703 1.881s1.058.399 1.767.399c.507 0 1.013-.076 1.52-.228.101-.025.209-.05.323-.076a2.07 2.07 0 0 1 .437-.038c.355 0 .671.133.95.399.279.266.418.589.418.969 0 .583-.291 1.026-.874 1.33a7.436 7.436 0 0 1-3.154.684zm9.462-23.712c-.532 0-.988-.19-1.368-.57-.38-.38-.57-.836-.57-1.368v-.152c0-.532.19-.988.57-1.368.38-.38.836-.57 1.368-.57h.228c.532 0 .988.19 1.368.57.38.38.57.836.57 1.368v.152c0 .532-.19.988-.57 1.368-.38.38-.836.57-1.368.57h-.228zm.076 23.522c-.481 0-.887-.165-1.216-.494a1.653 1.653 0 0 1-.494-1.216V46.178c0-.481.165-.893.494-1.235.33-.342.735-.513 1.216-.513.507 0 .925.165 1.254.494.33.33.494.747.494 1.254V62.48c0 .481-.171.887-.513 1.216-.342.33-.754.494-1.235.494zm16.72.19c-1.824 0-3.509-.405-5.054-1.216-1.545-.81-2.78-1.976-3.705-3.496-.925-1.52-1.387-3.306-1.387-5.358 0-2.052.462-3.838 1.387-5.358.925-1.52 2.16-2.685 3.705-3.496 1.545-.81 3.23-1.216 5.054-1.216 1.343 0 2.502.171 3.477.513.975.342 1.881.779 2.717 1.311.507.33.76.773.76 1.33 0 .38-.146.728-.437 1.045-.291.317-.627.475-1.007.475-.279 0-.557-.076-.836-.228-.836-.43-1.552-.741-2.147-.931-.595-.19-1.336-.285-2.223-.285-2.179 0-3.889.627-5.13 1.881s-1.862 2.907-1.862 4.959c0 2.052.62 3.705 1.862 4.959 1.241 1.254 2.951 1.881 5.13 1.881.887 0 1.628-.095 2.223-.285.595-.19 1.311-.5 2.147-.931.279-.152.557-.228.836-.228.38 0 .716.158 1.007.475.291.317.437.665.437 1.045 0 .557-.253 1-.76 1.33-.836.532-1.742.969-2.717 1.311-.975.342-2.134.513-3.477.513zm17.556 0c-2.533 0-4.839-.57-6.916-1.71-.43-.304-.646-.722-.646-1.254 0-.405.14-.76.418-1.064a1.38 1.38 0 0 1 1.064-.456c.228 0 .456.05.684.152.81.355 1.621.633 2.432.836.81.203 1.723.304 2.736.304 2.812 0 4.218-.9 4.218-2.698 0-.583-.323-1.026-.969-1.33-.646-.304-1.704-.646-3.173-1.026-1.495-.355-2.73-.722-3.705-1.102a6.515 6.515 0 0 1-2.508-1.729c-.697-.773-1.045-1.792-1.045-3.059 0-1.773.64-3.217 1.919-4.332 1.28-1.115 3.11-1.672 5.491-1.672 1.95 0 3.787.317 5.51.95.355.101.627.291.817.57.19.279.285.57.285.874 0 .405-.146.76-.437 1.064a1.44 1.44 0 0 1-1.083.456c-.127 0-.291-.025-.494-.076-1.47-.456-2.913-.684-4.332-.684-1.368 0-2.438.247-3.211.741-.773.494-1.159 1.134-1.159 1.919 0 .76.355 1.317 1.064 1.672.71.355 1.811.697 3.306 1.026 1.495.38 2.71.754 3.648 1.121a6.03 6.03 0 0 1 2.413 1.729c.671.785 1.007 1.837 1.007 3.154 0 1.621-.64 2.964-1.919 4.028-1.28 1.064-3.084 1.596-5.415 1.596z" fill-rule="evenodd"/>
</symbol></svg>