<?xml version="1.0" encoding="UTF-8"?>
<svg width="7px" height="12px" viewBox="0 0 7 12" version="1.1" xmlns="http://www.w3.org/2000/svg" xmlns:xlink="http://www.w3.org/1999/xlink">
    <!-- Generator: Sketch 49.3 (51167) - http://www.bohemiancoding.com/sketch -->
    <title>back-arrow</title>
    <desc>Created with Sketch.</desc>
    <defs></defs>
    <g id="Desktop" stroke="none" stroke-width="1" fill="none" fill-rule="evenodd">
        <g id="Get-Started---Step-2" transform="translate(-152.000000, -851.000000)" fill="#2F417C">
            <g id="Go-Back" transform="translate(140.000000, 852.000000)">
                <path d="M18.8415179,1.72991071 L15.2857143,5.28571429 L18.8415179,8.84151786 C18.9263397,8.92633971 18.96875,9.02678513 18.96875,9.14285714 C18.96875,9.25892915 18.9263397,9.35937458 18.8415179,9.44419643 L17.7299107,10.5558036 C17.6450889,10.6406254 17.5446434,10.6830357 17.4285714,10.6830357 C17.3124994,10.6830357 17.212054,10.6406254 17.1272321,10.5558036 L12.1584821,5.58705357 C12.0736603,5.50223172 12.03125,5.40178629 12.03125,5.28571429 C12.03125,5.16964228 12.0736603,5.06919685 12.1584821,4.984375 L17.1272321,0.015625 C17.212054,-0.0691968527 17.3124994,-0.111607143 17.4285714,-0.111607143 C17.5446434,-0.111607143 17.6450889,-0.0691968527 17.7299107,0.015625 L18.8415179,1.12723214 C18.9263397,1.212054 18.96875,1.31249942 18.96875,1.42857143 C18.96875,1.54464344 18.9263397,1.64508886 18.8415179,1.72991071 Z" id="back-arrow"></path>
            </g>
        </g>
    </g>
</svg>
