<?xml version="1.0" encoding="UTF-8"?>
<svg width="46px" height="46px" viewBox="0 0 46 46" version="1.1" xmlns="http://www.w3.org/2000/svg" xmlns:xlink="http://www.w3.org/1999/xlink">
    <!-- Generator: Sketch 49.2 (51160) - http://www.bohemiancoding.com/sketch -->
    <title>dash-nav-dashboards</title>
    <desc>Created with Sketch.</desc>
    <defs></defs>
    <g id="Page-1" stroke="none" stroke-width="1" fill="none" fill-rule="evenodd">
        <g id="Financial-Performance" transform="translate(-405.000000, -40.000000)" fill="#FFFFFF" fill-rule="nonzero">
            <g id="Group-11" transform="translate(398.000000, 33.000000)">
                <g id="Group-8">
                    <g id="dash-nav-dashboards" transform="translate(7.000000, 7.000000)">
                        <path d="M45.4046851,44.8 L36.578527,44.8 L36.578527,42.8664 C36.578527,42.7564 36.4892298,42.6664 36.3800887,42.6664 C36.2705508,42.6664 36.1816504,42.7564 36.1816504,42.8664 L36.1816504,44.8 L32.6097612,44.8 L32.6097612,42.8664 C32.6097612,42.7564 32.5204639,42.6664 32.4113229,42.6664 C32.301785,42.6664 32.2128846,42.7564 32.2128846,42.8664 L32.2128846,44.8 L28.6409954,44.8 L28.6409954,42.8664 C28.6409954,42.7564 28.5516981,42.6664 28.4425571,42.6664 C28.3330191,42.6664 28.2441188,42.7564 28.2441188,42.8664 L28.2441188,44.8 L24.6722296,44.8 L24.6722296,42.8664 C24.6722296,42.7564 24.5829323,42.6664 24.4737913,42.6664 C24.3642533,42.6664 24.275353,42.7564 24.275353,42.8664 L24.275353,44.8 L20.7034637,44.8 L20.7034637,42.8664 C20.7034637,42.7564 20.6145634,42.6664 20.5050254,42.6664 C20.3954875,42.6664 20.3065872,42.7564 20.3065872,42.8664 L20.3065872,44.8 L16.7346979,44.8 L16.7346979,42.8664 C16.7346979,42.7564 16.6457976,42.6664 16.5362596,42.6664 C16.4267217,42.6664 16.3378213,42.7564 16.3378213,42.8664 L16.3378213,44.8 L12.7659321,44.8 L12.7659321,42.8664 C12.7659321,42.7564 12.6770318,42.6664 12.5674938,42.6664 C12.4579559,42.6664 12.3690555,42.7564 12.3690555,42.8664 L12.3690555,44.8 L8.7971663,44.8 L8.7971663,42.8664 C8.7971663,42.7564 8.70826595,42.6664 8.59872801,42.6664 C8.48919007,42.6664 8.40028972,42.7564 8.40028972,42.8664 L8.40028972,44.8 L1.19062974,44.8 L1.19062974,40.2668 L2.78448609,40.2668 C2.89402403,40.2668 2.98292439,40.1772 2.98292439,40.0668 C2.98292439,39.9564 2.89402403,39.8668 2.78448609,39.8668 L1.19062974,39.8668 L1.19062974,36.2668 L2.78448609,36.2668 C2.89402403,36.2668 2.98292439,36.1772 2.98292439,36.0668 C2.98292439,35.9564 2.89402403,35.8668 2.78448609,35.8668 L1.19062974,35.8668 L1.19062974,32.2668 L2.78448609,32.2668 C2.89402403,32.2668 2.98292439,32.1772 2.98292439,32.0668 C2.98292439,31.9564 2.89402403,31.8668 2.78448609,31.8668 L1.19062974,31.8668 L1.19062974,28.2668 L2.78448609,28.2668 C2.89402403,28.2668 2.98292439,28.1772 2.98292439,28.0668 C2.98292439,27.9564 2.89402403,27.8668 2.78448609,27.8668 L1.19062974,27.8668 L1.19062974,24.2668 L2.78448609,24.2668 C2.89402403,24.2668 2.98292439,24.1772 2.98292439,24.0668 C2.98292439,23.9564 2.89402403,23.8668 2.78448609,23.8668 L1.19062974,23.8668 L1.19062974,20.2668 L2.78448609,20.2668 C2.89402403,20.2668 2.98292439,20.1772 2.98292439,20.0668 C2.98292439,19.9564 2.89402403,19.8668 2.78448609,19.8668 L1.19062974,19.8668 L1.19062974,16.2668 L2.78448609,16.2668 C2.89402403,16.2668 2.98292439,16.1772 2.98292439,16.0668 C2.98292439,15.9564 2.89402403,15.8668 2.78448609,15.8668 L1.19062974,15.8668 L1.19062974,12.2668 L2.78448609,12.2668 C2.89402403,12.2668 2.98292439,12.1772 2.98292439,12.0668 C2.98292439,11.9564 2.89402403,11.8668 2.78448609,11.8668 L1.19062974,11.8668 L1.19062974,0.6 C1.19062974,0.2688 0.923928681,0 0.595314872,0 C0.266701063,0 0,0.2688 0,0.6 L0,45.4 C0,45.7312 0.266701063,46 0.595314872,46 L45.4046851,46 C45.7332989,46 46,45.7312 46,45.4 C46,45.0688 45.7332989,44.8 45.4046851,44.8 Z" id="Shape"></path>
                        <rect id="Rectangle-path" x="6" y="3" width="5" height="38"></rect>
                        <path d="M20,26.2984819 C19.3453659,25.5799759 18.8146341,24.806988 18.4087805,24 L15,24 L15,41 L20,41 L20,26.2984819 Z" id="Shape"></path>
                        <path d="M29,30.6689487 C28.8380488,30.6745566 28.6760976,30.6829686 28.5141463,30.6829686 C26.9443902,30.6829686 25.4214634,30.4466334 24,30 L24,41 L29,41 L29,30.6689487 Z" id="Shape"></path>
                        <path d="M38,33.0530525 L33.1887805,29 C33.1268293,29.0315885 33.0619512,29.0591273 33,29.0895009 L33,41 L38,41 L38,33.0530525 Z" id="Shape"></path>
                        <path d="M45.6597025,38.0278724 L34.4938332,26.7639581 C37.2936718,23.1733674 37.044349,17.974792 33.7293239,14.6794062 C30.1363322,11.1068646 24.2889459,11.1068646 20.6947438,14.6794062 C17.1017521,18.2523488 17.1017521,24.0649987 20.6947438,27.6383424 C24.0097689,30.9341293 29.2378825,31.1816041 32.8502391,28.398415 L44.0161085,39.661527 C44.4699728,40.1127574 45.2050313,40.1127574 45.6588957,39.6619281 C46.1135669,39.2106977 46.1135669,38.4791028 45.6597025,38.0278724 Z M32.0873436,26.0046878 C29.3996599,28.676774 25.026425,28.6771751 22.3387413,26.0046878 C19.6510576,23.3330027 19.651461,18.985147 22.3387413,16.3134619 C25.026425,13.6417768 29.3992565,13.6409746 32.0873436,16.3134619 C34.7750273,18.985147 34.7750273,23.3330027 32.0873436,26.0046878 Z" id="Shape"></path>
                        <path d="M27.9712444,19.2742731 C26.8907025,18.8477926 26.5780773,18.5897739 26.5780773,18.1226575 C26.5780773,17.7494378 26.8646504,17.3130943 27.671852,17.3130943 C28.4314981,17.3130943 28.9095335,17.5738746 29.1138151,17.6851304 C29.1659193,17.7139306 29.2287751,17.7186649 29.2862551,17.6997278 C29.3433217,17.6800016 29.3879824,17.638182 29.4098992,17.5841322 L29.7167351,16.8108652 C29.7527118,16.7209137 29.715081,16.619521 29.6278271,16.5709946 C29.1882496,16.3267842 28.698222,16.1867282 28.1358275,16.1460922 L28.1358275,15.197262 C28.1358275,15.0883734 28.0431978,15 27.9290648,15 L27.1690051,15 C27.0548721,15 26.9622424,15.0883734 26.9622424,15.197262 L26.9622424,16.2163175 C25.8312504,16.45461 25.1104756,17.2432635 25.1104756,18.2631081 C25.1104756,19.4936284 26.1459432,20.0514854 27.2620483,20.4704699 C28.1548496,20.8148893 28.518752,21.1656212 28.518752,21.6792914 C28.518752,22.2470115 28.015078,22.6285162 27.2670106,22.6285162 C26.688075,22.6285162 26.085982,22.4572928 25.6153901,22.1590326 C25.5628724,22.1251036 25.4967083,22.1172131 25.4359201,22.1357557 C25.3751318,22.1542983 25.3271629,22.1992741 25.3064866,22.2564801 L25.0120565,23.0396102 C24.9810421,23.1228548 25.0112295,23.2155679 25.0869046,23.266856 C25.5169711,23.5595929 26.2017691,23.7655344 26.8762291,23.8101156 L26.8762291,24.802738 C26.8762291,24.9116266 26.9692723,25 27.0829918,25 L27.8554572,25 C27.9695903,25 28.0622199,24.9116266 28.0622199,24.802738 L28.0622199,23.7489644 C29.2279481,23.5000197 30,22.6529767 30,21.5972304 C29.9995865,20.5213635 29.3925312,19.8266067 27.9712444,19.2742731 Z" id="Shape"></path>
                    </g>
                </g>
            </g>
        </g>
    </g>
</svg>