<?xml version="1.0" encoding="UTF-8"?>
<svg width="41px" height="41px" viewBox="0 0 41 41" version="1.1" xmlns="http://www.w3.org/2000/svg" xmlns:xlink="http://www.w3.org/1999/xlink">
    <!-- Generator: Sketch 49.2 (51160) - http://www.bohemiancoding.com/sketch -->
    <title>dash-nav-planning</title>
    <desc>Created with Sketch.</desc>
    <defs></defs>
    <g id="Page-1" stroke="none" stroke-width="1" fill="none" fill-rule="evenodd">
        <g id="Financial-Performance" transform="translate(-497.000000, -42.000000)" fill="#FFFFFF" fill-rule="nonzero">
            <g id="Group-11" transform="translate(398.000000, 33.000000)">
                <g id="Group-9" transform="translate(90.000000, 0.000000)">
                    <g id="dash-nav-planning" transform="translate(9.000000, 9.000000)">
                        <path d="M31,6.00199019 L31,1.99800981 C31,0.894005422 30.3264592,0 29.5,0 C28.6719967,0 28,0.894005422 28,1.99800981 L28,6.00199019 C28,7.10599458 28.6734893,8 29.5,8 C30.3279518,7.99993137 31,7.10592595 31,6.00199019 Z" id="Shape"></path>
                        <path d="M11.8750129,8 C12.4960025,8 13,7.33204656 13,6.49602388 L13,1.50404475 C13,0.673992674 12.4974951,0 11.8750129,0 L11.1249871,0 C10.5039975,0 10,0.668022064 10,1.50404475 L10,6.49403368 C10,7.32607595 10.5025049,8 11.1249871,8 L11.8750129,8 Z" id="Shape"></path>
                        <path d="M1.22805719,3.00006863 C0.548609477,3.00006863 0,3.58202866 0,4.29602774 L0,39.7019821 C0,40.4200302 0.548609477,41 1.22611438,41 L39.7719428,41 C40.4513905,41 41,40.41804 41,39.7019821 L41,4.29602774 C41,3.58003847 40.4493807,3 39.7719428,3 L33.1905049,3 L33.1905049,6.74197557 C33.1905049,7.99799355 31.8785049,8.99995304 30.2600098,8.99995304 L28.3115049,8.99995304 C26.6871144,8.99995304 25.3810098,7.98996415 25.3810098,6.74197557 L25.3810098,3.00006863 L15.6190572,3.00006863 L15.6190572,6.74204419 C15.6190572,7.99806218 14.3070572,9.00002167 12.6884951,9.00002167 L10.7400572,9.00002167 C9.11566667,9.00002167 7.8094951,7.99003278 7.8094951,6.74204419 L7.8094951,3.00006863 L1.22805719,3.00006863 Z M33.1905049,17.0000506 L39.0476765,17.0000506 L39.0476765,23.0000036 L33.1905049,23.0000036 L33.1905049,17.0000506 Z M33.1905049,25.0000108 L39.0476765,25.0000108 L39.0476765,31.0000325 L33.1905049,31.0000325 L33.1905049,25.0000108 Z M33.1905049,33.0000397 L39.0476765,33.0000397 L39.0476765,38.2520232 C39.0476765,38.6639932 38.672781,38.9999928 38.2081814,38.9999928 L33.1905719,38.9999928 L33.1905719,33.0000397 L33.1905049,33.0000397 Z M25.3809428,17.0000506 L31.2381144,17.0000506 L31.2381144,23.0000036 L25.3809428,23.0000036 L25.3809428,17.0000506 Z M25.3809428,25.0000108 L31.2381144,25.0000108 L31.2381144,31.0000325 L25.3809428,31.0000325 L25.3809428,25.0000108 Z M25.3809428,33.0000397 L31.2381144,33.0000397 L31.2381144,39.0000614 L25.3809428,39.0000614 L25.3809428,33.0000397 Z M17.5714477,17.0000506 L23.4285523,17.0000506 L23.4285523,23.0000036 L17.5714477,23.0000036 L17.5714477,17.0000506 Z M17.5714477,33.0000397 L23.4285523,33.0000397 L23.4285523,39.0000614 L17.5714477,39.0000614 L17.5714477,33.0000397 Z M9.76188562,17.0000506 L15.6190572,17.0000506 L15.6190572,23.0000036 L9.76188562,23.0000036 L9.76188562,17.0000506 Z M9.76188562,25.0000108 L15.6190572,25.0000108 L15.6190572,31.0000325 L9.76188562,31.0000325 L9.76188562,25.0000108 Z M9.76188562,33.0000397 L15.6190572,33.0000397 L15.6190572,39.0000614 L9.76188562,39.0000614 L9.76188562,33.0000397 Z M7.8094951,38.9999928 L2.79188562,38.9999928 C2.32721895,38.9999928 1.95239052,38.6659834 1.95239052,38.2520232 L1.95239052,33.0000397 L7.8094951,33.0000397 L7.8094951,38.9999928 Z M7.8094951,31.0000325 L1.95239052,31.0000325 L1.95239052,25.0000108 L7.8094951,25.0000108 L7.8094951,31.0000325 Z M7.8094951,23.0000036 L1.95239052,23.0000036 L1.95239052,17.0000506 L7.8094951,17.0000506 L7.8094951,23.0000036 Z" id="Shape"></path>
                    </g>
                </g>
            </g>
        </g>
    </g>
</svg>