<?xml version="1.0" encoding="UTF-8"?>
<svg width="45px" height="44px" viewBox="0 0 45 44" version="1.1" xmlns="http://www.w3.org/2000/svg" xmlns:xlink="http://www.w3.org/1999/xlink">
    <!-- Generator: Sketch 49.2 (51160) - http://www.bohemiancoding.com/sketch -->
    <title>dash-nav-settings</title>
    <desc>Created with Sketch.</desc>
    <defs></defs>
    <g id="Page-1" stroke="none" stroke-width="1" fill="none" fill-rule="evenodd">
        <g id="Financial-Performance" transform="translate(-587.000000, -42.000000)" fill="#FFFFFF" fill-rule="nonzero">
            <g id="Group-11" transform="translate(398.000000, 33.000000)">
                <g id="Group-10" transform="translate(181.000000, 0.000000)">
                    <g id="dash-nav-settings" transform="translate(8.000000, 9.000000)">
                        <path d="M44.8586537,19.5575879 C44.7876205,18.9391636 44.0498476,18.4739182 43.4119106,18.4739182 C41.3501947,18.4739182 39.5204558,17.2907298 38.753102,15.4594327 C37.9697901,13.5841799 38.4751966,11.3976218 40.0112664,10.0197725 C40.495071,9.58725602 40.5540383,8.86303358 40.1484676,8.36030219 C39.092894,7.05000379 37.8936969,5.86624452 36.5839604,4.8404213 C36.0715479,4.43854064 35.3185954,4.49448426 34.8739077,4.97571351 C33.5328388,6.42796407 31.123741,6.96761064 29.2620858,6.20818559 C27.3255052,5.41146479 26.1031493,3.49206602 26.2232247,1.43185679 C26.2627309,0.784318968 25.7785371,0.221647988 25.1186089,0.146485649 C23.437748,-0.0437987538 21.7420966,-0.0493170015 20.0563703,0.13354631 C19.4048105,0.203951539 18.9210059,0.75330261 18.9426078,1.3926582 C19.0155872,3.43269729 17.7794139,5.31822544 15.8615159,6.08640357 C14.0222411,6.82109165 11.62988,6.28544106 10.2915355,4.84593955 C9.84918324,4.37175082 9.10946431,4.31352379 8.59354879,4.70684165 C7.24527919,5.74141795 6.0190311,6.92593836 4.95372686,8.22558083 C4.53862018,8.73078592 4.59992286,9.4630003 5.0878143,9.89703902 C6.65424357,11.284022 7.15926083,13.4894183 6.3459787,15.3865538 C5.56947816,17.195207 3.64885566,18.3603184 1.45032771,18.3603184 C0.736881349,18.3378649 0.229139521,18.8065353 0.150321797,19.4409435 C-0.047403652,21.093183 -0.0495443802,22.7775805 0.140785826,24.4433302 C0.211819083,25.0644185 0.971388403,25.5256679 1.61633145,25.5256679 C3.5760709,25.4769551 5.45640878,26.6624269 6.24633752,28.5399631 C7.03237403,30.4152159 6.52638371,32.6008226 4.9877839,33.9805748 C4.50650926,34.4130912 4.44501197,35.1356011 4.85136112,35.6377616 C5.89623114,36.9398778 7.09659588,38.1243982 8.4102246,39.1589745 C8.92594551,39.5650414 9.67597886,39.5081464 10.1230018,39.0263463 C11.4693253,37.5706706 13.8780339,37.0319754 15.7320992,37.7929228 C17.6743236,38.5875504 18.8960956,40.5067589 18.7767987,42.567539 C18.7376817,43.2150768 19.2230432,43.7794604 19.880636,43.8529102 C20.7408196,43.9512872 21.6054792,44 22.4728634,44 C23.2960707,44 24.1194726,43.9560443 24.9428746,43.8664203 C25.5952129,43.7960151 26.078239,43.2460932 26.0562479,42.6065473 C25.9809332,40.5674597 27.219831,38.6817412 29.1353936,37.9150854 C30.986929,37.1756402 33.3685865,37.716809 34.7077094,39.1542174 C35.152397,39.6274547 35.8876399,39.6849206 36.4056961,39.293125 C37.7516304,38.2612127 38.9755431,37.0772631 40.0455181,35.7741955 C40.461014,35.2699419 40.4020466,34.5367761 39.9114306,34.1019762 C38.3453906,32.7159446 37.8376488,30.509597 38.6509309,28.6143643 C39.4153655,26.8300675 41.2645655,25.6320369 43.2534967,25.6320369 L43.5317914,25.6392677 C44.1775129,25.6904542 44.7708839,25.2042775 44.8489231,24.5601648 C45.0476216,22.9064031 45.0497624,21.2239084 44.8586537,19.5575879 Z M22.4999144,34.6832951 C15.3356752,34.6832951 9.52826861,29.0050182 9.52826861,22.0002688 C9.52826861,14.9955193 15.3358698,9.31724245 22.4999144,9.31724245 C29.6639589,9.31724245 35.4715602,14.9955193 35.4715602,22.0002688 C35.4715602,24.3778724 34.801123,26.6017262 33.6367614,28.5034285 L27.9568254,22.9495976 C28.3680398,22.0016007 28.5852265,20.9738747 28.5850319,19.9132294 C28.5850319,17.8362752 27.7577377,15.8837669 26.2555302,14.4153422 C24.753712,12.9469174 22.7568018,12.1382087 20.6330047,12.1382087 C19.924229,12.1382087 19.2187617,12.2303064 18.5362586,12.412028 C18.2373351,12.4917571 17.9929029,12.7326572 17.9133067,13.0255049 C17.831959,13.3250125 17.9236211,13.6319413 18.1629935,13.8661814 C18.1629935,13.8661814 20.9671529,16.6291109 21.9053758,17.5462817 C22.0036546,17.6423754 22.00346,17.8716681 21.9896426,17.9542515 L21.9808851,18.0145717 C21.8863038,19.023079 21.7039527,20.2336684 21.5535179,20.6989137 C21.5332783,20.718513 21.5142063,20.7350678 21.4935775,20.7552379 C21.4719756,20.7763595 21.4521252,20.7967199 21.4313017,20.8176512 C20.9492487,20.9689273 19.6920573,21.1493169 18.6442681,21.241034 L18.6444627,21.2355157 L18.5973667,21.2471231 C18.5889984,21.2480745 18.5734295,21.2492162 18.5528006,21.2492162 C18.4395366,21.2492162 18.2729491,21.2181999 18.1215412,21.0703489 C17.1449799,20.1155017 14.450776,17.5000426 14.450776,17.5000426 C14.2090683,17.2644705 13.9611331,17.2149966 13.7959078,17.2149966 C13.4107713,17.2149966 13.0659194,17.4871033 12.9573261,17.8773766 C12.2156611,20.5609575 13.0018922,23.4475719 15.0097007,25.4109264 C16.5119081,26.8795414 18.509013,27.6882501 20.6331993,27.6882501 C21.7179647,27.6882501 22.7690623,27.476083 23.738423,27.0740121 L29.4800509,32.6879728 C27.4642633,33.9491778 25.0705398,34.6832951 22.4999144,34.6832951 Z" id="Shape"></path>
                    </g>
                </g>
            </g>
        </g>
    </g>
</svg>