<?xml version="1.0" encoding="UTF-8"?>
<svg width="4px" height="10px" viewBox="0 0 4 10" version="1.1" xmlns="http://www.w3.org/2000/svg" xmlns:xlink="http://www.w3.org/1999/xlink">
    <!-- Generator: Sketch 49.2 (51160) - http://www.bohemiancoding.com/sketch -->
    <title>info-mark</title>
    <desc>Created with Sketch.</desc>
    <defs></defs>
    <g id="Page-1" stroke="none" stroke-width="1" fill="none" fill-rule="evenodd">
        <g id="Financial-Performance" transform="translate(-302.000000, -905.000000)" fill="#FFFFFF">
            <g id="Group-7-Copy" transform="translate(295.000000, 900.000000)">
                <path d="M9.00976562,5.51171875 C9.30599106,5.51171875 9.5566396,5.6153961 9.76171875,5.82275391 C9.9667979,6.03011171 10.0693359,6.27962094 10.0693359,6.57128906 C10.0693359,6.86295719 9.96565859,7.1113271 9.75830078,7.31640625 C9.55094297,7.5214854 9.30143375,7.62402344 9.00976562,7.62402344 C8.7180975,7.62402344 8.46972759,7.5214854 8.26464844,7.31640625 C8.05956929,7.1113271 7.95703125,6.86295719 7.95703125,6.57128906 C7.95703125,6.27962094 8.05956929,6.03011171 8.26464844,5.82275391 C8.46972759,5.6153961 8.7180975,5.51171875 9.00976562,5.51171875 Z M9.96679688,8.60839844 L9.96679688,13.6738281 C9.96679688,14.1250023 10.0192052,14.4132481 10.1240234,14.5385742 C10.2288417,14.6639004 10.4339177,14.735677 10.7392578,14.7539062 L10.7392578,15 L7.28710938,15 L7.28710938,14.7539062 C7.56966287,14.7447916 7.77929619,14.6627612 7.91601562,14.5078125 C8.00716191,14.4029943 8.05273438,14.1250023 8.05273438,13.6738281 L8.05273438,9.94140625 C8.05273438,9.49023212 8.00032604,9.2019863 7.89550781,9.07666016 C7.79068958,8.95133401 7.58789213,8.87955738 7.28710938,8.86132812 L7.28710938,8.60839844 L9.96679688,8.60839844 Z" id="info-mark"></path>
            </g>
        </g>
    </g>
</svg>