<?xml version="1.0" encoding="UTF-8"?>
<svg width="317px" height="73px" viewBox="0 0 317 73" version="1.1" xmlns="http://www.w3.org/2000/svg" xmlns:xlink="http://www.w3.org/1999/xlink">
    <!-- Generator: Sketch 49.2 (51160) - http://www.bohemiancoding.com/sketch -->
    <title>logo</title>
    <desc>Created with Sketch.</desc>
    <defs></defs>
    <g id="Page-1" stroke="none" stroke-width="1" fill="none" fill-rule="evenodd">
        <g id="Account-Registration" transform="translate(-42.000000, -36.000000)" fill="#FFC402">
            <path d="M54.531,69.46 C50.6363139,69.46 46.987017,68.7240074 43.583,67.252 C43.2149982,67.0986659 42.9083346,66.8456684 42.663,66.493 C42.4176654,66.1403316 42.295,65.7646687 42.295,65.366 C42.295,64.8446641 42.4713316,64.3923353 42.824,64.009 C43.1766684,63.6256647 43.6289972,63.434 44.181,63.434 C44.4876682,63.434 44.7789986,63.4953327 45.055,63.618 C47.8763474,64.8753396 50.8969839,65.504 54.117,65.504 C59.4836935,65.504 62.167,63.7406843 62.167,60.214 C62.167,59.2939954 61.8220035,58.5273364 61.132,57.914 C60.4419966,57.3006636 59.5910051,56.8176684 58.579,56.465 C57.5669949,56.1123316 56.125676,55.6906691 54.255,55.2 C51.7709876,54.5559968 49.762341,53.935003 48.229,53.337 C46.695659,52.738997 45.3770055,51.842006 44.273,50.646 C43.1689945,49.449994 42.617,47.8553433 42.617,45.862 C42.617,44.1139913 43.0769954,42.5270071 43.997,41.101 C44.9170046,39.6749929 46.273991,38.5403376 48.068,37.697 C49.862009,36.8536625 52.0163208,36.432 54.531,36.432 C57.9043502,36.432 60.955653,36.9379949 63.685,37.95 C64.543671,38.2566682 64.973,38.8699954 64.973,39.79 C64.973,40.2806691 64.804335,40.7253313 64.467,41.124 C64.129665,41.5226687 63.6850028,41.722 63.133,41.722 C62.9489991,41.722 62.7036682,41.6606673 62.397,41.538 C60.004988,40.7099959 57.5363461,40.296 54.991,40.296 C52.5683212,40.296 50.5980076,40.7559954 49.08,41.676 C47.5619924,42.5960046 46.803,43.8839917 46.803,45.54 C46.803,46.6440055 47.1633297,47.5409966 47.884,48.231 C48.6046703,48.9210035 49.5093279,49.4576648 50.598,49.841 C51.6866721,50.2243353 53.166324,50.6306645 55.037,51.06 C57.4596788,51.6426696 59.4146592,52.2253304 60.902,52.808 C62.3893408,53.3906696 63.6619947,54.2953272 64.72,55.522 C65.7780053,56.7486728 66.307,58.4046562 66.307,60.49 C66.307,62.2073419 65.8163382,63.7483265 64.835,65.113 C63.8536618,66.4776735 62.4736756,67.5433295 60.695,68.31 C58.9163244,69.0766705 56.8616783,69.46 54.531,69.46 Z M74.817,69 C74.2343304,69 73.7436687,68.8006687 73.345,68.402 C72.9463313,68.0033313 72.747,67.5126696 72.747,66.93 L72.747,39.008 C72.747,38.4253304 72.9463313,37.9270021 73.345,37.513 C73.7436687,37.0989979 74.2343304,36.892 74.817,36.892 L93.263,36.892 C93.8150028,36.892 94.2826648,37.0836647 94.666,37.467 C95.0493353,37.8503353 95.241,38.3179972 95.241,38.87 C95.241,39.4220028 95.0493353,39.8819982 94.666,40.25 C94.2826648,40.6180018 93.8150028,40.802 93.263,40.802 L76.933,40.802 L76.933,50.968 L91.607,50.968 C92.1590028,50.968 92.6266648,51.1596647 93.01,51.543 C93.3933353,51.9263352 93.585,52.3939972 93.585,52.946 C93.585,53.4980028 93.3933353,53.9579982 93.01,54.326 C92.6266648,54.6940018 92.1590028,54.878 91.607,54.878 L76.933,54.878 L76.933,65.09 L93.263,65.09 C93.8150028,65.09 94.2826648,65.2816648 94.666,65.665 C95.0493353,66.0483353 95.241,66.5159972 95.241,67.068 C95.241,67.6200028 95.0493353,68.0799982 94.666,68.448 C94.2826648,68.8160018 93.8150028,69 93.263,69 L74.817,69 Z M104.993,69 C104.195663,69 103.513336,68.7163362 102.946,68.149 C102.378664,67.5816638 102.095,66.8993373 102.095,66.102 L102.095,38.778 C102.095,38.1953304 102.294331,37.6970021 102.693,37.283 C103.091669,36.8689979 103.58233,36.662 104.165,36.662 C104.74767,36.662 105.245998,36.8689979 105.66,37.283 C106.074002,37.6970021 106.281,38.1953304 106.281,38.778 L106.281,64.814 L121.323,64.814 C121.90567,64.814 122.403998,65.0209979 122.818,65.435 C123.232002,65.8490021 123.439,66.3473304 123.439,66.93 C123.439,67.5126696 123.232002,68.0033313 122.818,68.402 C122.403998,68.8006687 121.90567,69 121.323,69 L104.993,69 Z M131.489,69 C130.691663,69 130.009336,68.7163362 129.442,68.149 C128.874664,67.5816638 128.591,66.8993373 128.591,66.102 L128.591,38.778 C128.591,38.1953304 128.790331,37.6970021 129.189,37.283 C129.587669,36.8689979 130.07833,36.662 130.661,36.662 C131.24367,36.662 131.741998,36.8689979 132.156,37.283 C132.570002,37.6970021 132.777,38.1953304 132.777,38.778 L132.777,64.814 L147.819,64.814 C148.40167,64.814 148.899998,65.0209979 149.314,65.435 C149.728002,65.8490021 149.935,66.3473304 149.935,66.93 C149.935,67.5126696 149.728002,68.0033313 149.314,68.402 C148.899998,68.8006687 148.40167,69 147.819,69 L131.489,69 Z M157.157,69 C156.57433,69 156.083669,68.8006687 155.685,68.402 C155.286331,68.0033313 155.087,67.5126696 155.087,66.93 L155.087,39.008 C155.087,38.4253304 155.286331,37.9270021 155.685,37.513 C156.083669,37.0989979 156.57433,36.892 157.157,36.892 L175.603,36.892 C176.155003,36.892 176.622665,37.0836647 177.006,37.467 C177.389335,37.8503353 177.581,38.3179972 177.581,38.87 C177.581,39.4220028 177.389335,39.8819982 177.006,40.25 C176.622665,40.6180018 176.155003,40.802 175.603,40.802 L159.273,40.802 L159.273,50.968 L173.947,50.968 C174.499003,50.968 174.966665,51.1596647 175.35,51.543 C175.733335,51.9263352 175.925,52.3939972 175.925,52.946 C175.925,53.4980028 175.733335,53.9579982 175.35,54.326 C174.966665,54.6940018 174.499003,54.878 173.947,54.878 L159.273,54.878 L159.273,65.09 L175.603,65.09 C176.155003,65.09 176.622665,65.2816648 177.006,65.665 C177.389335,66.0483353 177.581,66.5159972 177.581,67.068 C177.581,67.6200028 177.389335,68.0799982 177.006,68.448 C176.622665,68.8160018 176.155003,69 175.603,69 L157.157,69 Z M186.505,69.23 C185.92233,69.23 185.431669,69.0306687 185.033,68.632 C184.634331,68.2333313 184.435,67.7426696 184.435,67.16 L184.435,39.008 C184.435,38.4253304 184.634331,37.9270021 185.033,37.513 C185.431669,37.0989979 185.92233,36.892 186.505,36.892 L197.223,36.892 C201.393688,36.892 204.521656,37.7506581 206.607,39.468 C208.692344,41.1853419 209.735,43.4393194 209.735,46.23 C209.735,48.0700092 209.221338,49.7489924 208.194,51.267 C207.166662,52.7850076 205.671676,53.88133 203.709,54.556 C205.917011,55.1386696 207.427329,56.5109892 208.24,58.673 C209.052671,60.8350108 209.459,62.9586562 209.459,65.044 L209.459,67.16 C209.459,67.7426696 209.259669,68.2333313 208.861,68.632 C208.462331,69.0306687 207.97167,69.23 207.389,69.23 C206.744997,69.23 206.231335,69.0383353 205.848,68.655 C205.464665,68.2716647 205.273,67.7733364 205.273,67.16 L205.273,65.78 C205.273,64.246659 205.135001,62.8283398 204.859,61.525 C204.582999,60.2216601 203.923672,59.0563385 202.881,58.029 C201.838328,57.0016615 200.259011,56.488 198.143,56.488 L188.621,56.488 L188.621,67.16 C188.621,67.7426696 188.414002,68.2333313 188,68.632 C187.585998,69.0306687 187.08767,69.23 186.505,69.23 Z M196.947,52.532 C199.584347,52.532 201.677326,52.0106719 203.226,50.968 C204.774674,49.9253281 205.549,48.4533428 205.549,46.552 C205.549,44.7119908 204.882007,43.3013382 203.548,42.32 C202.213993,41.3386618 199.937016,40.848 196.717,40.848 L188.621,40.848 L188.621,52.532 L196.947,52.532 Z M219.257,69.23 C218.67433,69.23 218.183669,69.0306687 217.785,68.632 C217.386331,68.2333313 217.187,67.7426696 217.187,67.16 L217.187,39.008 C217.187,38.4253304 217.386331,37.9270021 217.785,37.513 C218.183669,37.0989979 218.67433,36.892 219.257,36.892 L229.745,36.892 C232.658348,36.892 235.034991,37.3826618 236.875,38.364 C238.715009,39.3453382 240.033663,40.602659 240.831,42.136 C241.628337,43.669341 242.027,45.3253244 242.027,47.104 C242.027,48.8826756 241.628337,50.538659 240.831,52.072 C240.033663,53.605341 238.715009,54.8626618 236.875,55.844 C235.034991,56.8253382 232.658348,57.316 229.745,57.316 L221.373,57.316 L221.373,67.16 C221.373,67.7426696 221.166002,68.2333313 220.752,68.632 C220.337998,69.0306687 219.83967,69.23 219.257,69.23 Z M229.331,53.36 C232.459016,53.36 234.659327,52.762006 235.932,51.566 C237.204673,50.369994 237.841,48.8826756 237.841,47.104 C237.841,45.3253244 237.204673,43.838006 235.932,42.642 C234.659327,41.445994 232.459016,40.848 229.331,40.848 L221.373,40.848 L221.373,53.36 L229.331,53.36 Z M262.313,69.46 C259.092984,69.46 256.271679,68.7546737 253.849,67.344 C251.426321,65.9333263 249.555673,63.9860124 248.237,61.502 C246.918327,59.0179876 246.228334,56.1660161 246.167,52.946 C246.228334,49.7259839 246.918327,46.8740124 248.237,44.39 C249.555673,41.9059876 251.426321,39.9586737 253.849,38.548 C256.271679,37.1373263 259.092984,36.432 262.313,36.432 C265.533016,36.432 268.346655,37.1373263 270.754,38.548 C273.161345,39.9586737 275.031993,41.9136542 276.366,44.413 C277.700007,46.9123458 278.397666,49.7566507 278.459,52.946 C278.397666,56.1353493 277.700007,58.9796542 276.366,61.479 C275.031993,63.9783458 273.161345,65.9333263 270.754,67.344 C268.346655,68.7546737 265.533016,69.46 262.313,69.46 Z M262.313,65.55 C264.766346,65.55 266.897658,64.9980055 268.707,63.894 C270.516342,62.7899945 271.896329,61.2873428 272.847,59.386 C273.797671,57.4846572 274.273,55.338012 274.273,52.946 C274.273,50.553988 273.797671,48.4073428 272.847,46.506 C271.896329,44.6046572 270.516342,43.1020055 268.707,41.998 C266.897658,40.8939945 264.766346,40.342 262.313,40.342 C259.828988,40.342 257.690009,40.8939945 255.896,41.998 C254.101991,43.1020055 252.729671,44.6046572 251.779,46.506 C250.828329,48.4073428 250.353,50.553988 250.353,52.946 C250.353,55.338012 250.828329,57.4846572 251.779,59.386 C252.729671,61.2873428 254.101991,62.7899945 255.896,63.894 C257.690009,64.9980055 259.828988,65.55 262.313,65.55 Z M287.521,69.23 C286.93833,69.23 286.447669,69.0306687 286.049,68.632 C285.650331,68.2333313 285.451,67.7426696 285.451,67.16 L285.451,38.778 C285.451,38.1953304 285.650331,37.6970021 286.049,37.283 C286.447669,36.8689979 286.93833,36.662 287.521,36.662 C288.10367,36.662 288.601998,36.8689979 289.016,37.283 C289.430002,37.6970021 289.637,38.1953304 289.637,38.778 L289.637,67.16 C289.637,67.7426696 289.430002,68.2333313 289.016,68.632 C288.601998,69.0306687 288.10367,69.23 287.521,69.23 Z M300.631,69.23 C300.04833,69.23 299.557669,69.0306687 299.159,68.632 C298.760331,68.2333313 298.561,67.7426696 298.561,67.16 L298.561,39.698 C298.561,38.8699959 298.85233,38.157003 299.435,37.559 C300.01767,36.960997 300.722996,36.662 301.551,36.662 L302.149,36.662 C303.130338,36.662 303.973663,37.1219954 304.679,38.042 L322.389,63.618 L322.389,38.778 C322.389,38.1953304 322.588331,37.6970021 322.987,37.283 C323.385669,36.8689979 323.87633,36.662 324.459,36.662 C325.04167,36.662 325.539998,36.8689979 325.954,37.283 C326.368002,37.6970021 326.575,38.1953304 326.575,38.778 L326.575,66.24 C326.575,67.0680041 326.276003,67.7733304 325.678,68.356 C325.079997,68.9386696 324.367004,69.23 323.539,69.23 L322.987,69.23 C322.496331,69.23 322.036335,69.1150011 321.607,68.885 C321.177665,68.6549988 320.825001,68.3560018 320.549,67.988 L302.747,42.274 L302.747,67.16 C302.747,67.7426696 302.540002,68.2333313 302.126,68.632 C301.711998,69.0306687 301.21367,69.23 300.631,69.23 Z M345.021,69.23 C344.43833,69.23 343.947669,69.0306687 343.549,68.632 C343.150331,68.2333313 342.951,67.7426696 342.951,67.16 L342.951,40.802 L333.567,40.802 C333.014997,40.802 332.555002,40.6180018 332.187,40.25 C331.818998,39.8819982 331.635,39.4220028 331.635,38.87 C331.635,38.3179972 331.818998,37.8503353 332.187,37.467 C332.555002,37.0836647 333.014997,36.892 333.567,36.892 L356.475,36.892 C357.027003,36.892 357.494665,37.0836647 357.878,37.467 C358.261335,37.8503353 358.453,38.3179972 358.453,38.87 C358.453,39.4220028 358.261335,39.8819982 357.878,40.25 C357.494665,40.6180018 357.027003,40.802 356.475,40.802 L347.137,40.802 L347.137,67.16 C347.137,67.7426696 346.930002,68.2333313 346.516,68.632 C346.101998,69.0306687 345.60367,69.23 345.021,69.23 Z M51.623,100.38 C50.5083278,100.38 49.4760048,100.152002 48.526,99.696 C47.5759953,99.2399977 46.8223361,98.5750044 46.265,97.701 C45.7076639,96.8269956 45.429,95.8200057 45.429,94.68 C45.429,92.805324 46.1699926,91.3106722 47.652,90.196 C49.1340074,89.0813278 51.306319,88.524 54.169,88.524 L58.767,88.524 L58.767,88.22 C58.767,86.5479916 58.3553375,85.3446703 57.532,84.61 C56.7086626,83.8753297 55.4230087,83.508 53.675,83.508 C52.7123285,83.508 51.8573371,83.5839992 51.11,83.736 C50.3626629,83.8880008 49.5330046,84.1159985 48.621,84.42 C48.4183323,84.4706669 48.2536673,84.496 48.127,84.496 C47.7469981,84.496 47.4176681,84.3566681 47.139,84.078 C46.8603319,83.7993319 46.721,83.4573354 46.721,83.052 C46.721,82.3679966 47.05033,81.8866681 47.709,81.608 C49.8623441,80.6959954 52.0536555,80.24 54.283,80.24 C56.0310087,80.24 57.5066607,80.5946631 58.71,81.304 C59.9133394,82.0133369 60.7999972,82.931661 61.37,84.059 C61.9400029,85.186339 62.225,86.4086601 62.225,87.726 L62.225,98.48 C62.225,98.9613357 62.0540017,99.366665 61.712,99.696 C61.3699983,100.025335 60.9583357,100.19 60.477,100.19 C59.9956643,100.19 59.590335,100.025335 59.261,99.696 C58.931665,99.366665 58.767,98.9613357 58.767,98.48 L58.767,97.492 C56.892324,99.417343 54.5110144,100.38 51.623,100.38 Z M52.915,97.34 C54.0296722,97.34 55.1063281,97.0676694 56.145,96.523 C57.1836719,95.9783306 58.0576631,95.3006707 58.767,94.49 L58.767,91.298 L54.625,91.298 C50.7996475,91.298 48.887,92.2986567 48.887,94.3 C48.887,95.2120046 49.1973302,95.9466639 49.818,96.504 C50.4386698,97.0613361 51.4709928,97.34 52.915,97.34 Z M69.749,100.19 C69.2676643,100.19 68.862335,100.025335 68.533,99.696 C68.203665,99.366665 68.039,98.9613357 68.039,98.48 L68.039,82.178 C68.039,81.6966643 68.203665,81.2850017 68.533,80.943 C68.862335,80.6009983 69.2676643,80.43 69.749,80.43 C70.2303357,80.43 70.6419983,80.6009983 70.984,80.943 C71.3260017,81.2850017 71.497,81.6966643 71.497,82.178 L71.497,83.736 C72.2063369,82.7226616 73.0613283,81.88667 74.062,81.228 C75.0626717,80.56933 76.360992,80.24 77.957,80.24 C79.3756738,80.24 80.5916616,80.6199962 81.605,81.38 C82.6183384,82.1400038 83.3403312,83.0646612 83.771,84.154 C85.3416745,81.5446536 87.6723179,80.24 90.763,80.24 C92.1816738,80.24 93.3659952,80.5946631 94.316,81.304 C95.2660048,82.0133369 95.9689977,82.9253278 96.425,84.04 C96.8810023,85.1546722 97.109,86.3199939 97.109,87.536 L97.109,98.48 C97.109,98.9613357 96.9380017,99.366665 96.596,99.696 C96.2539983,100.025335 95.8423357,100.19 95.361,100.19 C94.8796643,100.19 94.474335,100.025335 94.145,99.696 C93.815665,99.366665 93.651,98.9613357 93.651,98.48 L93.651,88.22 C93.651,86.5733251 93.3596696,85.3636705 92.777,84.591 C92.1943304,83.8183295 91.1936738,83.432 89.775,83.432 C88.4829935,83.432 87.4126709,83.7676633 86.564,84.439 C85.7153291,85.1103367 84.96167,85.9906612 84.303,87.08 L84.303,98.48 C84.303,98.9613357 84.1320017,99.366665 83.79,99.696 C83.4479983,100.025335 83.0363357,100.19 82.555,100.19 C82.0736643,100.19 81.668335,100.025335 81.339,99.696 C81.009665,99.366665 80.845,98.9613357 80.845,98.48 L80.845,88.22 C80.845,86.5733251 80.5536696,85.3636705 79.971,84.591 C79.3883304,83.8183295 78.3876738,83.432 76.969,83.432 C75.6769935,83.432 74.6066709,83.7676633 73.758,84.439 C72.9093291,85.1103367 72.15567,85.9906612 71.497,87.08 L71.497,98.48 C71.497,98.9613357 71.3260017,99.366665 70.984,99.696 C70.6419983,100.025335 70.2303357,100.19 69.749,100.19 Z M107.863,100.38 C106.748328,100.38 105.716005,100.152002 104.766,99.696 C103.815995,99.2399977 103.062336,98.5750044 102.505,97.701 C101.947664,96.8269956 101.669,95.8200057 101.669,94.68 C101.669,92.805324 102.409993,91.3106722 103.892,90.196 C105.374007,89.0813278 107.546319,88.524 110.409,88.524 L115.007,88.524 L115.007,88.22 C115.007,86.5479916 114.595337,85.3446703 113.772,84.61 C112.948663,83.8753297 111.663009,83.508 109.915,83.508 C108.952329,83.508 108.097337,83.5839992 107.35,83.736 C106.602663,83.8880008 105.773005,84.1159985 104.861,84.42 C104.658332,84.4706669 104.493667,84.496 104.367,84.496 C103.986998,84.496 103.657668,84.3566681 103.379,84.078 C103.100332,83.7993319 102.961,83.4573354 102.961,83.052 C102.961,82.3679966 103.29033,81.8866681 103.949,81.608 C106.102344,80.6959954 108.293656,80.24 110.523,80.24 C112.271009,80.24 113.746661,80.5946631 114.95,81.304 C116.153339,82.0133369 117.039997,82.931661 117.61,84.059 C118.180003,85.186339 118.465,86.4086601 118.465,87.726 L118.465,98.48 C118.465,98.9613357 118.294002,99.366665 117.952,99.696 C117.609998,100.025335 117.198336,100.19 116.717,100.19 C116.235664,100.19 115.830335,100.025335 115.501,99.696 C115.171665,99.366665 115.007,98.9613357 115.007,98.48 L115.007,97.492 C113.132324,99.417343 110.751014,100.38 107.863,100.38 Z M109.155,97.34 C110.269672,97.34 111.346328,97.0676694 112.385,96.523 C113.423672,95.9783306 114.297663,95.3006707 115.007,94.49 L115.007,91.298 L110.865,91.298 C107.039648,91.298 105.127,92.2986567 105.127,94.3 C105.127,95.2120046 105.43733,95.9466639 106.058,96.504 C106.67867,97.0613361 107.710993,97.34 109.155,97.34 Z M125.191,100 C124.506997,100 123.937002,99.8226684 123.481,99.468 C123.024998,99.1133316 122.797,98.6193365 122.797,97.986 C122.797,97.4033304 122.999665,96.8840023 123.405,96.428 L134.349,83.85 L124.735,83.85 C124.278998,83.85 123.899002,83.6980015 123.595,83.394 C123.290998,83.0899985 123.139,82.7100023 123.139,82.254 C123.139,81.7979977 123.290998,81.4116682 123.595,81.095 C123.899002,80.7783318 124.278998,80.62 124.735,80.62 L136.249,80.62 C136.90767,80.62 137.439665,80.8226646 137.845,81.228 C138.250335,81.6333354 138.453,82.1526635 138.453,82.786 C138.453,83.3686696 138.275668,83.8753312 137.921,84.306 L127.281,96.77 L137.047,96.77 C137.503002,96.77 137.889332,96.9283317 138.206,97.245 C138.522668,97.5616682 138.681,97.9479977 138.681,98.404 C138.681,98.8600023 138.522668,99.2399985 138.206,99.544 C137.889332,99.8480015 137.503002,100 137.047,100 L125.191,100 Z M151.753,100.38 C149.802324,100.38 148.092341,99.9620042 146.623,99.126 C145.153659,98.2899958 144.020004,97.1056743 143.222,95.573 C142.423996,94.0403257 142.025,92.2860099 142.025,90.31 C142.025,88.3339901 142.423996,86.5796743 143.222,85.047 C144.020004,83.5143257 145.153659,82.3300042 146.623,81.494 C148.092341,80.6579958 149.802324,80.24 151.753,80.24 C153.678343,80.24 155.375659,80.6579958 156.845,81.494 C158.314341,82.3300042 159.454329,83.5143257 160.265,85.047 C161.075671,86.5796743 161.481,88.3339901 161.481,90.31 C161.481,92.2860099 161.075671,94.0403257 160.265,95.573 C159.454329,97.1056743 158.314341,98.2899958 156.845,99.126 C155.375659,99.9620042 153.678343,100.38 151.753,100.38 Z M151.753,97.226 C152.791672,97.226 153.785995,96.9853357 154.736,96.504 C155.686005,96.0226643 156.47133,95.2626719 157.092,94.224 C157.71267,93.1853281 158.023,91.868008 158.023,90.272 C158.023,88.7013255 157.71267,87.3966719 157.092,86.358 C156.47133,85.3193281 155.686005,84.565669 154.736,84.097 C153.785995,83.628331 152.791672,83.394 151.753,83.394 C150.688995,83.394 149.682005,83.628331 148.732,84.097 C147.781995,84.565669 147.003003,85.3193281 146.395,86.358 C145.786997,87.3966719 145.483,88.7013255 145.483,90.272 C145.483,91.868008 145.786997,93.1853281 146.395,94.224 C147.003003,95.2626719 147.781995,96.0226643 148.732,96.504 C149.682005,96.9853357 150.688995,97.226 151.753,97.226 Z M168.017,100.19 C167.535664,100.19 167.130335,100.025335 166.801,99.696 C166.471665,99.366665 166.307,98.9613357 166.307,98.48 L166.307,82.178 C166.307,81.6966643 166.471665,81.2850017 166.801,80.943 C167.130335,80.6009983 167.535664,80.43 168.017,80.43 C168.498336,80.43 168.909998,80.6009983 169.252,80.943 C169.594002,81.2850017 169.765,81.6966643 169.765,82.178 L169.765,83.736 C170.727671,82.6719947 171.766328,81.8233365 172.881,81.19 C173.995672,80.5566635 175.312992,80.24 176.833,80.24 C178.22634,80.24 179.435995,80.56933 180.462,81.228 C181.488005,81.88667 182.273331,82.7859943 182.818,83.926 C183.362669,85.0660057 183.635,86.3199932 183.635,87.688 L183.635,98.48 C183.635,98.9613357 183.464002,99.366665 183.122,99.696 C182.779998,100.025335 182.368336,100.19 181.887,100.19 C181.405664,100.19 181.000335,100.025335 180.671,99.696 C180.341665,99.366665 180.177,98.9613357 180.177,98.48 L180.177,88.068 C180.177,84.9773179 178.783681,83.432 175.997,83.432 C174.730327,83.432 173.596672,83.76133 172.596,84.42 C171.595328,85.07867 170.651671,85.9653278 169.765,87.08 L169.765,98.48 C169.765,98.9613357 169.594002,99.366665 169.252,99.696 C168.909998,100.025335 168.498336,100.19 168.017,100.19 Z M204.269,100.38 C203.154328,100.38 202.122005,100.152002 201.172,99.696 C200.221995,99.2399977 199.468336,98.5750044 198.911,97.701 C198.353664,96.8269956 198.075,95.8200057 198.075,94.68 C198.075,92.805324 198.815993,91.3106722 200.298,90.196 C201.780007,89.0813278 203.952319,88.524 206.815,88.524 L211.413,88.524 L211.413,88.22 C211.413,86.5479916 211.001337,85.3446703 210.178,84.61 C209.354663,83.8753297 208.069009,83.508 206.321,83.508 C205.358329,83.508 204.503337,83.5839992 203.756,83.736 C203.008663,83.8880008 202.179005,84.1159985 201.267,84.42 C201.064332,84.4706669 200.899667,84.496 200.773,84.496 C200.392998,84.496 200.063668,84.3566681 199.785,84.078 C199.506332,83.7993319 199.367,83.4573354 199.367,83.052 C199.367,82.3679966 199.69633,81.8866681 200.355,81.608 C202.508344,80.6959954 204.699656,80.24 206.929,80.24 C208.677009,80.24 210.152661,80.5946631 211.356,81.304 C212.559339,82.0133369 213.445997,82.931661 214.016,84.059 C214.586003,85.186339 214.871,86.4086601 214.871,87.726 L214.871,98.48 C214.871,98.9613357 214.700002,99.366665 214.358,99.696 C214.015998,100.025335 213.604336,100.19 213.123,100.19 C212.641664,100.19 212.236335,100.025335 211.907,99.696 C211.577665,99.366665 211.413,98.9613357 211.413,98.48 L211.413,97.492 C209.538324,99.417343 207.157014,100.38 204.269,100.38 Z M205.561,97.34 C206.675672,97.34 207.752328,97.0676694 208.791,96.523 C209.829672,95.9783306 210.703663,95.3006707 211.413,94.49 L211.413,91.298 L207.271,91.298 C203.445648,91.298 201.533,92.2986567 201.533,94.3 C201.533,95.2120046 201.84333,95.9466639 202.464,96.504 C203.08467,97.0613361 204.116993,97.34 205.561,97.34 Z M222.395,100.19 C221.913664,100.19 221.508335,100.025335 221.179,99.696 C220.849665,99.366665 220.685,98.9613357 220.685,98.48 L220.685,82.178 C220.685,81.6966643 220.849665,81.2850017 221.179,80.943 C221.508335,80.6009983 221.913664,80.43 222.395,80.43 C222.876336,80.43 223.287998,80.6009983 223.63,80.943 C223.972002,81.2850017 224.143,81.6966643 224.143,82.178 L224.143,83.736 C225.105671,82.6719947 226.144328,81.8233365 227.259,81.19 C228.373672,80.5566635 229.690992,80.24 231.211,80.24 C232.60434,80.24 233.813995,80.56933 234.84,81.228 C235.866005,81.88667 236.651331,82.7859943 237.196,83.926 C237.740669,85.0660057 238.013,86.3199932 238.013,87.688 L238.013,98.48 C238.013,98.9613357 237.842002,99.366665 237.5,99.696 C237.157998,100.025335 236.746336,100.19 236.265,100.19 C235.783664,100.19 235.378335,100.025335 235.049,99.696 C234.719665,99.366665 234.555,98.9613357 234.555,98.48 L234.555,88.068 C234.555,84.9773179 233.161681,83.432 230.375,83.432 C229.108327,83.432 227.974672,83.76133 226.974,84.42 C225.973328,85.07867 225.029671,85.9653278 224.143,87.08 L224.143,98.48 C224.143,98.9613357 223.972002,99.366665 223.63,99.696 C223.287998,100.025335 222.876336,100.19 222.395,100.19 Z M248.767,100.38 C247.652328,100.38 246.620005,100.152002 245.67,99.696 C244.719995,99.2399977 243.966336,98.5750044 243.409,97.701 C242.851664,96.8269956 242.573,95.8200057 242.573,94.68 C242.573,92.805324 243.313993,91.3106722 244.796,90.196 C246.278007,89.0813278 248.450319,88.524 251.313,88.524 L255.911,88.524 L255.911,88.22 C255.911,86.5479916 255.499337,85.3446703 254.676,84.61 C253.852663,83.8753297 252.567009,83.508 250.819,83.508 C249.856329,83.508 249.001337,83.5839992 248.254,83.736 C247.506663,83.8880008 246.677005,84.1159985 245.765,84.42 C245.562332,84.4706669 245.397667,84.496 245.271,84.496 C244.890998,84.496 244.561668,84.3566681 244.283,84.078 C244.004332,83.7993319 243.865,83.4573354 243.865,83.052 C243.865,82.3679966 244.19433,81.8866681 244.853,81.608 C247.006344,80.6959954 249.197656,80.24 251.427,80.24 C253.175009,80.24 254.650661,80.5946631 255.854,81.304 C257.057339,82.0133369 257.943997,82.931661 258.514,84.059 C259.084003,85.186339 259.369,86.4086601 259.369,87.726 L259.369,98.48 C259.369,98.9613357 259.198002,99.366665 258.856,99.696 C258.513998,100.025335 258.102336,100.19 257.621,100.19 C257.139664,100.19 256.734335,100.025335 256.405,99.696 C256.075665,99.366665 255.911,98.9613357 255.911,98.48 L255.911,97.492 C254.036324,99.417343 251.655014,100.38 248.767,100.38 Z M250.059,97.34 C251.173672,97.34 252.250328,97.0676694 253.289,96.523 C254.327672,95.9783306 255.201663,95.3006707 255.911,94.49 L255.911,91.298 L251.769,91.298 C247.943648,91.298 246.031,92.2986567 246.031,94.3 C246.031,95.2120046 246.34133,95.9466639 246.962,96.504 C247.58267,97.0613361 248.614993,97.34 250.059,97.34 Z M266.893,100.19 C266.411664,100.19 266.006335,100.025335 265.677,99.696 C265.347665,99.366665 265.183,98.9613357 265.183,98.48 L265.183,73.818 C265.183,73.3366643 265.347665,72.9250017 265.677,72.583 C266.006335,72.2409983 266.411664,72.07 266.893,72.07 C267.399669,72.07 267.817665,72.234665 268.147,72.564 C268.476335,72.893335 268.641,73.3113308 268.641,73.818 L268.641,98.48 C268.641,98.9613357 268.470002,99.366665 268.128,99.696 C267.785998,100.025335 267.374336,100.19 266.893,100.19 Z M278.977,108.93 C278.520998,108.93 278.134668,108.765335 277.818,108.436 C277.501332,108.106665 277.343,107.714002 277.343,107.258 C277.343,107.055332 277.381,106.852668 277.457,106.65 L279.927,100.304 L272.783,82.9 C272.681666,82.6466654 272.631,82.4060011 272.631,82.178 C272.631,81.6966643 272.795665,81.2850017 273.125,80.943 C273.454335,80.6009983 273.859664,80.43 274.341,80.43 C274.695668,80.43 275.018665,80.5313323 275.31,80.734 C275.601335,80.9366677 275.810333,81.1899985 275.937,81.494 L281.789,96.01 L287.755,81.57 C288.084335,80.8099962 288.61633,80.43 289.351,80.43 C289.832336,80.43 290.237665,80.6009983 290.567,80.943 C290.896335,81.2850017 291.061,81.6966643 291.061,82.178 C291.061,82.4060011 291.023,82.6213323 290.947,82.824 L280.573,107.752 C280.218332,108.537337 279.686337,108.93 278.977,108.93 Z M302.537,100.38 C298.838315,100.38 296.989,98.7080167 296.989,95.364 L296.989,83.584 L294.291,83.584 C294.088332,83.584 293.917334,83.514334 293.778,83.375 C293.638666,83.235666 293.569,83.0646677 293.569,82.862 C293.569,82.6086654 293.682999,82.3933342 293.911,82.216 L299.079,77.162 C299.307001,76.9339989 299.522332,76.82 299.725,76.82 C299.927668,76.82 300.098666,76.8959992 300.238,77.048 C300.377334,77.2000008 300.447,77.3773323 300.447,77.58 L300.447,80.62 L304.741,80.62 C305.171669,80.62 305.526332,80.7593319 305.805,81.038 C306.083668,81.3166681 306.223,81.6713312 306.223,82.102 C306.223,82.5073354 306.083668,82.8556652 305.805,83.147 C305.526332,83.4383348 305.171669,83.584 304.741,83.584 L300.447,83.584 L300.447,95.06 C300.447,96.0480049 300.681331,96.6749987 301.15,96.941 C301.618669,97.2070013 302.207663,97.34 302.917,97.34 C303.423669,97.34 303.930331,97.2640008 304.437,97.112 C304.538334,97.0866665 304.645999,97.0613335 304.76,97.036 C304.874001,97.0106665 305.019666,96.998 305.197,96.998 C305.551668,96.998 305.868332,97.1309987 306.147,97.397 C306.425668,97.6630013 306.565,97.9859981 306.565,98.366 C306.565,98.9486696 306.27367,99.3919985 305.691,99.696 C304.702995,100.152002 303.651672,100.38 302.537,100.38 Z M311.999,76.668 C311.466997,76.668 311.011002,76.4780019 310.631,76.098 C310.250998,75.7179981 310.061,75.2620027 310.061,74.73 L310.061,74.578 C310.061,74.0459973 310.250998,73.5900019 310.631,73.21 C311.011002,72.8299981 311.466997,72.64 311.999,72.64 L312.227,72.64 C312.759003,72.64 313.214998,72.8299981 313.595,73.21 C313.975002,73.5900019 314.165,74.0459973 314.165,74.578 L314.165,74.73 C314.165,75.2620027 313.975002,75.7179981 313.595,76.098 C313.214998,76.4780019 312.759003,76.668 312.227,76.668 L311.999,76.668 Z M312.075,100.19 C311.593664,100.19 311.188335,100.025335 310.859,99.696 C310.529665,99.366665 310.365,98.9613357 310.365,98.48 L310.365,82.178 C310.365,81.6966643 310.529665,81.2850017 310.859,80.943 C311.188335,80.6009983 311.593664,80.43 312.075,80.43 C312.581669,80.43 312.999665,80.594665 313.329,80.924 C313.658335,81.253335 313.823,81.6713308 313.823,82.178 L313.823,98.48 C313.823,98.9613357 313.652002,99.366665 313.31,99.696 C312.967998,100.025335 312.556336,100.19 312.075,100.19 Z M328.795,100.38 C326.970991,100.38 325.286341,99.9746707 323.741,99.164 C322.195659,98.3533293 320.960671,97.1880076 320.036,95.668 C319.111329,94.1479924 318.649,92.3620103 318.649,90.31 C318.649,88.2579897 319.111329,86.4720076 320.036,84.952 C320.960671,83.4319924 322.195659,82.2666707 323.741,81.456 C325.286341,80.6453293 326.970991,80.24 328.795,80.24 C330.137673,80.24 331.296662,80.4109983 332.272,80.753 C333.247338,81.0950017 334.152996,81.5319973 334.989,82.064 C335.495669,82.393335 335.749,82.8366639 335.749,83.394 C335.749,83.7740019 335.603335,84.1223318 335.312,84.439 C335.020665,84.7556682 334.685002,84.914 334.305,84.914 C334.026332,84.914 333.747668,84.8380008 333.469,84.686 C332.632996,84.2553312 331.917336,83.945001 331.322,83.755 C330.726664,83.564999 329.985671,83.47 329.099,83.47 C326.920322,83.47 325.21034,84.0969937 323.969,85.351 C322.72766,86.6050063 322.107,88.2579897 322.107,90.31 C322.107,92.3620103 322.72766,94.0149937 323.969,95.269 C325.21034,96.5230063 326.920322,97.15 329.099,97.15 C329.985671,97.15 330.726664,97.0550009 331.322,96.865 C331.917336,96.674999 332.632996,96.3646688 333.469,95.934 C333.747668,95.7819992 334.026332,95.706 334.305,95.706 C334.685002,95.706 335.020665,95.8643317 335.312,96.181 C335.603335,96.4976683 335.749,96.8459981 335.749,97.226 C335.749,97.7833361 335.495669,98.226665 334.989,98.556 C334.152996,99.0880027 333.247338,99.5249983 332.272,99.867 C331.296662,100.209002 330.137673,100.38 328.795,100.38 Z M346.351,100.38 C343.817654,100.38 341.512344,99.8100057 339.435,98.67 C339.004331,98.3659985 338.789,97.9480027 338.789,97.416 C338.789,97.0106646 338.928332,96.6560015 339.207,96.352 C339.485668,96.0479985 339.840331,95.896 340.271,95.896 C340.499001,95.896 340.726999,95.9466662 340.955,96.048 C341.765671,96.4026684 342.576329,96.6813323 343.387,96.884 C344.197671,97.0866677 345.109662,97.188 346.123,97.188 C348.935014,97.188 350.341,96.2886757 350.341,94.49 C350.341,93.9073304 350.018003,93.4640015 349.372,93.16 C348.725997,92.8559985 347.668341,92.5140019 346.199,92.134 C344.704326,91.7793316 343.469338,91.4120019 342.494,91.032 C341.518662,90.6519981 340.68267,90.0756705 339.986,89.303 C339.28933,88.5303295 338.941,87.510673 338.941,86.244 C338.941,84.4706578 339.58066,83.0266722 340.86,81.912 C342.13934,80.7973278 343.969655,80.24 346.351,80.24 C348.301676,80.24 350.138325,80.5566635 351.861,81.19 C352.215668,81.2913338 352.487999,81.4813319 352.678,81.76 C352.868001,82.0386681 352.963,82.3299985 352.963,82.634 C352.963,83.0393354 352.817335,83.3939985 352.526,83.698 C352.234665,84.0020015 351.873669,84.154 351.443,84.154 C351.316333,84.154 351.151668,84.1286669 350.949,84.078 C349.479659,83.6219977 348.035674,83.394 346.617,83.394 C345.248993,83.394 344.178671,83.6409975 343.406,84.135 C342.633329,84.6290025 342.247,85.2686627 342.247,86.054 C342.247,86.8140038 342.601663,87.3713316 343.311,87.726 C344.020337,88.0806684 345.122326,88.422665 346.617,88.752 C348.111674,89.1320019 349.327662,89.5056648 350.265,89.873 C351.202338,90.2403352 352.006663,90.8166627 352.678,91.602 C353.349337,92.3873373 353.685,93.4386601 353.685,94.756 C353.685,96.3773414 353.04534,97.7199947 351.766,98.784 C350.48666,99.8480053 348.681678,100.38 346.351,100.38 Z" id="logo"></path>
        </g>
    </g>
</svg>